<?xml version="1.0" encoding="UTF-8" standalone="no"?>
<svg
   width="24px"
   height="24px"
   viewBox="0 0 24 24"
   fill="none"
   version="1.1"
   id="svg6"
   sodipodi:docname="cut.svg"
   inkscape:version="1.1.2 (0a00cf5339, 2022-02-04, custom)"
   xmlns:inkscape="http://www.inkscape.org/namespaces/inkscape"
   xmlns:sodipodi="http://sodipodi.sourceforge.net/DTD/sodipodi-0.dtd"
   xmlns="http://www.w3.org/2000/svg"
   xmlns:svg="http://www.w3.org/2000/svg">
  <defs
     id="defs10" />
  <sodipodi:namedview
     id="namedview8"
     pagecolor="#ffffff"
     bordercolor="#666666"
     borderopacity="1.0"
     inkscape:pageshadow="2"
     inkscape:pageopacity="0.0"
     inkscape:pagecheckerboard="0"
     showgrid="false"
     inkscape:zoom="17.1875"
     inkscape:cx="1.7745455"
     inkscape:cy="14.836364"
     inkscape:window-width="1920"
     inkscape:window-height="1015"
     inkscape:window-x="0"
     inkscape:window-y="40"
     inkscape:window-maximized="1"
     inkscape:current-layer="svg6" />
  <path
     d="M 7.2202672,1.0436423 C 6.8666293,0.51870377 6.1544026,0.37983641 5.6294526,0.73347429 5.104514,1.0871122 4.9656466,1.7993389 5.3192845,2.3242775 L 10.812,10.477581 8.1455453,14.692309 c -0.57258,-0.25706 -1.2074939,-0.400088 -1.8758153,-0.400088 -2.5317937,0 -4.584216,2.052469 -4.584216,4.584216 0,2.531748 2.0524223,4.584216 4.584216,4.584216 2.5317937,0 4.584216,-2.052468 4.584216,-4.584216 0,-1.027666 -0.338086,-1.976255 -0.9091646,-2.740788 l 2.2659776,-3.581762 2.158822,3.204711 c -0.759261,0.817938 -1.223527,1.91368 -1.223527,3.117839 0,2.531748 2.052468,4.584216 4.584216,4.584216 2.531748,0 4.584216,-2.052468 4.584216,-4.584216 0,-2.531747 -2.052468,-4.584216 -4.584216,-4.584216 -0.499794,0 -0.980908,0.08 -1.431307,0.227836 l -4.147798,-6.1592266 -6.88e-4,0.00113 z M 3.977622,18.876437 c 0,-1.265931 1.0262111,-2.292108 2.292108,-2.292108 1.2658969,0 2.292108,1.026177 2.292108,2.292108 0,1.265932 -1.0262111,2.292108 -2.292108,2.292108 -1.2658969,0 -2.292108,-1.026176 -2.292108,-2.292108 z m 11.46054,0 c 0,-1.265931 1.026177,-2.292108 2.292108,-2.292108 1.265931,0 2.292108,1.026177 2.292108,2.292108 0,1.265932 -1.026177,2.292108 -2.292108,2.292108 -1.265931,0 -2.292108,-1.026176 -2.292108,-2.292108 z"
     fill="#212121"
     id="path2"
     style="stroke-width:1.14605" />
  <path
     d="m 14.888285,8.3215895 3.81063,-6.0232702 C 19.03723,1.763433 18.877928,1.0554925 18.343065,0.71708572 17.808202,0.37869035 17.100284,0.5379804 16.761854,1.0728782 l -3.272213,5.1722219 z"
     fill="#212121"
     id="path4"
     style="stroke-width:1.14605" />
</svg>
